<svg xmlns="http://www.w3.org/2000/svg" viewBox="0 0 68.81 31.51"><defs><style>.cls-1,.cls-2{fill:#1d1d1b;}.cls-1{stroke:#1d1d1b;stroke-miterlimit:10;stroke-width:0.05px;}</style></defs><g id="Calque_2" data-name="Calque 2"><g id="Calque_1-2" data-name="Calque 1"><path class="cls-1" d="M22.08,24.21,10.2,31.48,0,21l8.71-6.91L4.33,10.44,16.62,0,23,7.62,20.36,9.79,16.22,4.86,9.63,10.44l1.81,1.48,4.42-3.49,5,6.63-6.75,3.45-2.69-2.25L5.1,21.32l5.66,5.9,9.56-5.82Zm-7.47-9.72,1.13-.56-.52-.68-1.09.88Z"/><path class="cls-2" d="M27.44,2.27A2.2,2.2,0,0,1,29.65.1H38c5.86,0,9,3.42,9,8.19,0,4.5-2.9,8.08-9.16,8.08H31.45v13a2,2,0,1,1-4,0Zm10.48,10.2c4.06,0,5.14-1.33,5.14-4.18S41.86,4,38,4H31.45v8.47Z"/><path class="cls-1" d="M67.85,24.21,56,31.48,45.8,21l8.72-6.91L50.1,10.44,62.39,0l6.38,7.58L66.12,9.79,62,4.86,55.4,10.44l1.81,1.48,4.41-3.49,5,6.63L59.9,18.51l-2.69-2.25-6.35,5.06,5.66,5.9,9.56-5.82Zm-7.47-9.72,1.12-.56L61,13.25l-1.08.88Z"/></g></g></svg>